<?xml version="1.0" standalone="no"?>
<!DOCTYPE svg PUBLIC "-//W3C//DTD SVG 20010904//EN"
 "http://www.w3.org/TR/2001/REC-SVG-20010904/DTD/svg10.dtd">
<svg version="1.0" xmlns="http://www.w3.org/2000/svg"
 width="192.000000pt" height="192.000000pt" viewBox="0 0 192.000000 192.000000"
 preserveAspectRatio="xMidYMid meet">
<metadata>
Created by potrace 1.11, written by Peter Selinger 2001-2013
</metadata>
<g transform="translate(0.000000,192.000000) scale(0.100000,-0.100000)"
fill="#000000" stroke="none">
<path d="M1310 1906 c-85 -32 -220 -145 -265 -222 -54 -92 -67 -147 -63 -262
3 -95 7 -116 37 -187 28 -65 47 -93 100 -145 37 -36 104 -87 151 -115 46 -27
104 -69 129 -93 48 -44 32 -43 -40 5 -20 13 -71 35 -115 49 -70 23 -96 26
-229 27 -92 0 -165 -4 -190 -12 -22 -7 -61 -18 -87 -26 -64 -18 -190 -98 -224
-142 -15 -20 -40 -59 -56 -87 l-28 -51 1 60 c1 33 4 87 8 120 l6 59 55 12
c111 23 197 55 261 98 126 85 170 165 177 321 4 87 1 114 -23 200 -33 123 -52
161 -105 209 -113 102 -293 140 -555 117 -77 -7 -165 -18 -195 -25 l-55 -13 0
-209 c1 -196 3 -218 32 -354 43 -199 204 -763 304 -1062 27 -80 49 -154 49
-164 0 -16 19 -17 279 -11 225 4 285 8 312 21 25 11 89 18 229 25 240 12 279
20 405 81 87 42 111 59 179 130 44 47 88 103 102 133 23 49 24 62 24 245 0
177 -2 196 -21 235 -52 101 -156 210 -245 255 -87 44 -145 117 -158 198 -6 31
-3 45 11 63 l19 23 50 -20 c28 -10 73 -35 99 -56 63 -48 97 -48 142 0 60 64
87 129 87 214 1 60 -4 85 -23 124 -31 64 -140 174 -211 214 -54 31 -57 32
-190 31 -85 0 -148 -5 -170 -13z m-827 -421 c46 -19 67 -50 67 -98 0 -52 -21
-98 -59 -130 -59 -50 -71 -41 -130 89 -29 64 -50 123 -47 130 10 25 117 31
169 9z m658 -898 c89 -68 70 -214 -36 -274 -59 -33 -161 -32 -224 3 -85 47
-110 113 -73 198 18 40 29 50 84 77 56 27 72 30 138 27 64 -3 80 -7 111 -31z"/>
</g>
</svg>
